<?xml version="1.0" encoding="UTF-8" standalone="no"?>
<!-- Created with Inkscape (http://www.inkscape.org/) -->

<svg
   xmlns:dc="http://purl.org/dc/elements/1.1/"
   xmlns:cc="http://creativecommons.org/ns#"
   xmlns:rdf="http://www.w3.org/1999/02/22-rdf-syntax-ns#"
   xmlns:svg="http://www.w3.org/2000/svg"
   xmlns="http://www.w3.org/2000/svg"
   xmlns:sodipodi="http://sodipodi.sourceforge.net/DTD/sodipodi-0.dtd"
   xmlns:inkscape="http://www.inkscape.org/namespaces/inkscape"
   width="16"
   height="16"
   id="svg2"
   version="1.1"
   inkscape:version="0.48.3.1 r9886"
   sodipodi:docname="extras_action.svg"
   inkscape:export-filename="/home/ethric/git/oyster/themes/default/extras_action.png"
   inkscape:export-xdpi="90"
   inkscape:export-ydpi="90">
  <defs
     id="defs4" />
  <sodipodi:namedview
     id="base"
     pagecolor="#ffffff"
     bordercolor="#666666"
     borderopacity="1.0"
     inkscape:pageopacity="0.0"
     inkscape:pageshadow="2"
     inkscape:zoom="16"
     inkscape:cx="-2.3224478"
     inkscape:cy="4.3696308"
     inkscape:document-units="px"
     inkscape:current-layer="layer1"
     showgrid="false"
     inkscape:window-width="1920"
     inkscape:window-height="1016"
     inkscape:window-x="0"
     inkscape:window-y="0"
     inkscape:window-maximized="1"
     showguides="true"
     inkscape:guide-bbox="true"
     inkscape:snap-nodes="false">
    <inkscape:grid
       type="xygrid"
       id="grid2985"
       empspacing="5"
       visible="true"
       enabled="true"
       snapvisiblegridlinesonly="true" />
  </sodipodi:namedview>
  <metadata
     id="metadata7">
    <rdf:RDF>
      <cc:Work
         rdf:about="">
        <dc:format>image/svg+xml</dc:format>
        <dc:type
           rdf:resource="http://purl.org/dc/dcmitype/StillImage" />
        <dc:title></dc:title>
      </cc:Work>
    </rdf:RDF>
  </metadata>
  <g
     inkscape:label="Ebene 1"
     inkscape:groupmode="layer"
     id="layer1"
     transform="translate(0,-1036.3622)">
    <path
       style="color:#000000;fill:#ffcc00;fill-opacity:1;stroke:none;stroke-width:2;marker:none;visibility:visible;display:inline;overflow:visible;enable-background:accumulate"
       d="M 8,0 C 3.581722,0 0,3.581722 0,8 c 0,4.418278 3.581722,8 8,8 4.418278,0 8,-3.581722 8,-8 C 16,3.581722 12.418278,0 8,0 z"
       transform="translate(0,1036.3622)"
       id="path3935-3"
       inkscape:connector-curvature="0"
       sodipodi:nodetypes="sssss" />
    <g
       style="font-size:13.73966694px;font-style:normal;font-variant:normal;font-weight:bold;font-stretch:normal;text-align:center;line-height:125%;letter-spacing:0px;word-spacing:0px;writing-mode:lr-tb;text-anchor:middle;fill:#000000;fill-opacity:1;stroke:none;font-family:FreeSans;-inkscape-font-specification:FreeSans Bold"
       id="text3025" />
    <path
       style="color:#000000;fill:#ffffff;fill-opacity:1;fill-rule:nonzero;stroke:none;stroke-width:1.33102453;marker:none;visibility:visible;display:inline;overflow:visible;enable-background:accumulate"
       d="m 10.734014,1038.6987 c -1.3095778,0.1548 -2.3835233,1.2335 -2.4987871,2.5988 -0.035037,0.415 0.029103,0.8232 0.1597538,1.1915 l -5.4342243,5.1559 a 1.1321972,1.1321972 0 1 0 1.5561456,1.6305 l 5.4342274,-5.156 c 0.2722716,0.1166 0.5582106,0.2128 0.8696576,0.2392 1.560249,0.1314 2.929406,-1.0254 3.061134,-2.5856 0.01646,-0.195 0.0047,-0.4072 -0.0174,-0.5943 l -1.246113,1.1588 -1.991438,-0.3904 -0.172046,-2.0045 1.18363,-1.1603 c -0.11435,-0.025 -0.222725,-0.06 -0.342187,-0.071 -0.195028,-0.017 -0.375275,-0.035 -0.562347,-0.013 z"
       id="path3055"
       inkscape:connector-curvature="0" />
  </g>
</svg>
