<?xml version="1.0" encoding="UTF-8" standalone="no"?>
<!-- Created with Inkscape (http://www.inkscape.org/) -->

<svg
   xmlns:dc="http://purl.org/dc/elements/1.1/"
   xmlns:cc="http://creativecommons.org/ns#"
   xmlns:rdf="http://www.w3.org/1999/02/22-rdf-syntax-ns#"
   xmlns:svg="http://www.w3.org/2000/svg"
   xmlns="http://www.w3.org/2000/svg"
   xmlns:sodipodi="http://sodipodi.sourceforge.net/DTD/sodipodi-0.dtd"
   xmlns:inkscape="http://www.inkscape.org/namespaces/inkscape"
   width="16"
   height="16"
   id="svg2"
   version="1.1"
   inkscape:version="0.48.3.1 r9886"
   sodipodi:docname="pr_scored.svg"
   inkscape:export-filename="/home/ethric/git/oyster/themes/default/pr_scored.png"
   inkscape:export-xdpi="90"
   inkscape:export-ydpi="90">
  <defs
     id="defs4" />
  <sodipodi:namedview
     id="base"
     pagecolor="#ffffff"
     bordercolor="#666666"
     borderopacity="1.0"
     inkscape:pageopacity="0.0"
     inkscape:pageshadow="2"
     inkscape:zoom="32"
     inkscape:cx="5.1915523"
     inkscape:cy="5.7440734"
     inkscape:document-units="px"
     inkscape:current-layer="layer1"
     showgrid="true"
     inkscape:window-width="1920"
     inkscape:window-height="1016"
     inkscape:window-x="0"
     inkscape:window-y="0"
     inkscape:window-maximized="1">
    <inkscape:grid
       type="xygrid"
       id="grid2985"
       empspacing="5"
       visible="true"
       enabled="true"
       snapvisiblegridlinesonly="true" />
  </sodipodi:namedview>
  <metadata
     id="metadata7">
    <rdf:RDF>
      <cc:Work
         rdf:about="">
        <dc:format>image/svg+xml</dc:format>
        <dc:type
           rdf:resource="http://purl.org/dc/dcmitype/StillImage" />
        <dc:title />
      </cc:Work>
    </rdf:RDF>
  </metadata>
  <g
     inkscape:label="Ebene 1"
     inkscape:groupmode="layer"
     id="layer1"
     transform="translate(0,-1036.3622)">
    <path
       style="font-size:medium;font-style:normal;font-variant:normal;font-weight:normal;font-stretch:normal;text-indent:0;text-align:start;text-decoration:none;line-height:normal;letter-spacing:normal;word-spacing:normal;text-transform:none;direction:ltr;block-progression:tb;writing-mode:lr-tb;text-anchor:start;baseline-shift:baseline;color:#000000;fill:#ffcc00;fill-opacity:1;fill-rule:nonzero;stroke:none;stroke-width:2;marker:none;visibility:visible;display:inline;overflow:visible;enable-background:accumulate;font-family:Sans;-inkscape-font-specification:Sans"
       d="m 4.4389388,1036.3669 c -0.303133,-0.021 -0.6213572,0.03 -0.9369156,0.1249 -1.9454098,0.5835 -3.59647475,2.4203 -3.49781799,4.7452 0.30119377,4.9167 3.99095319,8.6362 7.40163279,10.9577 0.3286894,0.2234 0.7956192,0.2234 1.1242987,0 3.4252413,-2.3258 7.1261663,-6.0441 7.4640943,-10.9577 0.116005,-2.3234 -1.533773,-4.1524 -3.466588,-4.7452 -1.260675,-0.3868 -2.484575,0.2731 -3.372896,1.1239 -0.4885697,0.4679 -0.7804277,1.1425 -1.1555292,1.7482 -0.3707169,-0.605 -0.6703152,-1.279 -1.1555291,-1.7482 -0.6616711,-0.6401 -1.4953512,-1.1863 -2.4047499,-1.2488 z m 0.5309188,2.4974 c 0.8279106,0 1.4990648,0.671 1.4990648,1.4985 0,0.8276 -0.6711542,1.4985 -1.4990648,1.4985 -0.8279106,0 -1.4990649,-0.6709 -1.4990649,-1.4985 0,-0.8276 0.6711543,-1.4985 1.4990649,-1.4985 z m 6.0587214,0 c 0.82791,0 1.499064,0.671 1.499064,1.4985 0,0.8276 -0.671154,1.4985 -1.499064,1.4985 -0.827911,0 -1.4990657,-0.6709 -1.4990657,-1.4985 0,-0.8276 0.6711547,-1.4985 1.4990657,-1.4985 z m -3.0293612,2.9971 c 0.8279106,0 1.4990649,0.6709 1.4990649,1.4983 0,0.8277 -0.6711543,1.4985 -1.4990649,1.4985 -0.8279106,0 -1.4990648,-0.6709 -1.4990648,-1.4985 0,-0.8275 0.6711542,-1.4983 1.4990648,-1.4983 z m -3.0293602,2.9969 c 0.8279106,0 1.4990648,0.6709 1.4990648,1.4985 0,0.8276 -0.6711542,1.4984 -1.4990648,1.4984 -0.8279106,0 -1.4990649,-0.6709 -1.4990649,-1.4984 0,-0.8277 0.6711543,-1.4985 1.4990649,-1.4985 z m 6.0587214,0 c 0.82791,0 1.499064,0.6709 1.499064,1.4985 0,0.8276 -0.671154,1.4984 -1.499064,1.4984 -0.827911,0 -1.4990657,-0.6709 -1.4990657,-1.4984 0,-0.8277 0.6711547,-1.4985 1.4990657,-1.4985 z"
       id="path3771"
       inkscape:connector-curvature="0" />
  </g>
</svg>
