<?xml version="1.0" encoding="UTF-8" standalone="no"?>
<!-- Created with Inkscape (http://www.inkscape.org/) -->

<svg
   xmlns:dc="http://purl.org/dc/elements/1.1/"
   xmlns:cc="http://creativecommons.org/ns#"
   xmlns:rdf="http://www.w3.org/1999/02/22-rdf-syntax-ns#"
   xmlns:svg="http://www.w3.org/2000/svg"
   xmlns="http://www.w3.org/2000/svg"
   xmlns:sodipodi="http://sodipodi.sourceforge.net/DTD/sodipodi-0.dtd"
   xmlns:inkscape="http://www.inkscape.org/namespaces/inkscape"
   width="16"
   height="16"
   id="svg2"
   version="1.1"
   inkscape:version="0.48.3.1 r9886"
   sodipodi:docname="pr_scored.svg"
   inkscape:export-filename="/home/ethric/git/oyster/themes/default/pr_scored.png"
   inkscape:export-xdpi="90"
   inkscape:export-ydpi="90">
  <defs
     id="defs4" />
  <sodipodi:namedview
     id="base"
     pagecolor="#ffffff"
     bordercolor="#666666"
     borderopacity="1.0"
     inkscape:pageopacity="0.0"
     inkscape:pageshadow="2"
     inkscape:zoom="45.254834"
     inkscape:cx="7.1527318"
     inkscape:cy="8.2814739"
     inkscape:document-units="px"
     inkscape:current-layer="layer1"
     showgrid="true"
     inkscape:window-width="1920"
     inkscape:window-height="1016"
     inkscape:window-x="0"
     inkscape:window-y="0"
     inkscape:window-maximized="1">
    <inkscape:grid
       type="xygrid"
       id="grid2985"
       empspacing="5"
       visible="true"
       enabled="true"
       snapvisiblegridlinesonly="true" />
  </sodipodi:namedview>
  <metadata
     id="metadata7">
    <rdf:RDF>
      <cc:Work
         rdf:about="">
        <dc:format>image/svg+xml</dc:format>
        <dc:type
           rdf:resource="http://purl.org/dc/dcmitype/StillImage" />
        <dc:title />
      </cc:Work>
    </rdf:RDF>
  </metadata>
  <g
     inkscape:label="Ebene 1"
     inkscape:groupmode="layer"
     id="layer1"
     transform="translate(0,-1036.3622)">
    <g
       id="g4811">
      <path
         inkscape:connector-curvature="0"
         id="path3771"
         d="m 4.4389415,1036.3668 c -0.303322,-0.021 -0.6211593,0.03 -0.9369145,0.1249 -1.9466234,0.5842 -3.59653223,2.418 -3.49781392,4.7452 0.30138165,4.9217 3.98881712,8.6338 7.40162432,10.9575 0.3288944,0.2237 0.7954129,0.2237 1.1242973,0 3.4273783,-2.328 7.1259463,-6.0388 7.4640853,-10.9575 0.116078,-2.3258 -1.532562,-4.1518 -3.466583,-4.7452 -1.261462,-0.3871 -2.484018,0.2721 -3.3728926,1.1238 -0.4888745,0.4684 -0.7801924,1.142 -1.1555278,1.7482 -0.3709482,-0.6056 -0.6700113,-1.2785 -1.1555279,-1.7482 -0.6620838,-0.6406 -1.4947812,-1.1861 -2.4047472,-1.2487 z"
         style="font-size:medium;font-style:normal;font-variant:normal;font-weight:normal;font-stretch:normal;text-indent:0;text-align:start;text-decoration:none;line-height:normal;letter-spacing:normal;word-spacing:normal;text-transform:none;direction:ltr;block-progression:tb;writing-mode:lr-tb;text-anchor:start;baseline-shift:baseline;color:#000000;fill:#ffcc00;fill-opacity:1;fill-rule:nonzero;stroke:none;stroke-width:2;marker:none;visibility:visible;display:inline;overflow:visible;enable-background:accumulate;font-family:Sans;-inkscape-font-specification:Sans"
         sodipodi:nodetypes="ccccccccccc" />
      <path
         transform="matrix(1.5,0,0,1.5,17.750784,1034.6158)"
         d="M -6,6.5 C -6,6.7761424 -6.2238576,7 -6.5,7 -6.7761424,7 -7,6.7761424 -7,6.5 -7,6.2238576 -6.7761424,6 -6.5,6 -6.2238576,6 -6,6.2238576 -6,6.5 z"
         sodipodi:ry="0.5"
         sodipodi:rx="0.5"
         sodipodi:cy="6.5"
         sodipodi:cx="-6.5"
         id="path4751"
         style="color:#000000;fill:#ffcc00;fill-opacity:1;stroke:none;stroke-width:1;marker:none;visibility:visible;display:inline;overflow:visible;enable-background:accumulate"
         sodipodi:type="arc" />
      <path
         transform="matrix(1.5,0,0,1.5,19.765625,1032.5809)"
         d="M -6,6.5 C -6,6.7761424 -6.2238576,7 -6.5,7 -6.7761424,7 -7,6.7761424 -7,6.5 -7,6.2238576 -6.7761424,6 -6.5,6 -6.2238576,6 -6,6.2238576 -6,6.5 z"
         sodipodi:ry="0.5"
         sodipodi:rx="0.5"
         sodipodi:cy="6.5"
         sodipodi:cx="-6.5"
         id="path4751-6"
         style="color:#000000;fill:#ffcc00;fill-opacity:1;stroke:none;stroke-width:1;marker:none;visibility:visible;display:inline;overflow:visible;enable-background:accumulate"
         sodipodi:type="arc" />
      <path
         transform="matrix(1.5,0,0,1.5,15.75,1036.6434)"
         d="M -6,6.5 C -6,6.7761424 -6.2238576,7 -6.5,7 -6.7761424,7 -7,6.7761424 -7,6.5 -7,6.2238576 -6.7761424,6 -6.5,6 -6.2238576,6 -6,6.2238576 -6,6.5 z"
         sodipodi:ry="0.5"
         sodipodi:rx="0.5"
         sodipodi:cy="6.5"
         sodipodi:cx="-6.5"
         id="path4751-8"
         style="color:#000000;fill:#ffcc00;fill-opacity:1;stroke:none;stroke-width:1;marker:none;visibility:visible;display:inline;overflow:visible;enable-background:accumulate"
         sodipodi:type="arc" />
    </g>
    <g
       id="g3892"
       transform="translate(0,-0.48613598)">
      <path
         transform="matrix(0.66551225,0,0,0.66551225,4.3871507,1043.45)"
         d="m 3.1377864,-3.8873782 c 0,1.2447962 -1.0091067,2.2539029 -2.25390292,2.2539029 -1.24479621,0 -2.25390288,-1.0091067 -2.25390288,-2.2539029 0,-1.2447962 1.00910667,-2.2539029 2.25390288,-2.2539029 1.24479622,0 2.25390292,1.0091067 2.25390292,2.2539029 z"
         sodipodi:ry="2.2539029"
         sodipodi:rx="2.2539029"
         sodipodi:cy="-3.8873782"
         sodipodi:cx="0.88388348"
         id="path3935"
         style="color:#000000;fill:#ffffff;fill-opacity:1;fill-rule:nonzero;stroke:none;stroke-width:2;marker:none;visibility:visible;display:inline;overflow:visible;enable-background:accumulate"
         sodipodi:type="arc" />
      <path
         transform="matrix(0.66551225,0,0,0.66551225,10.436378,1043.45)"
         d="m 3.1377864,-3.8873782 c 0,1.2447962 -1.0091067,2.2539029 -2.25390292,2.2539029 -1.24479621,0 -2.25390288,-1.0091067 -2.25390288,-2.2539029 0,-1.2447962 1.00910667,-2.2539029 2.25390288,-2.2539029 1.24479622,0 2.25390292,1.0091067 2.25390292,2.2539029 z"
         sodipodi:ry="2.2539029"
         sodipodi:rx="2.2539029"
         sodipodi:cy="-3.8873782"
         sodipodi:cx="0.88388348"
         id="path3935-8"
         style="color:#000000;fill:#ffffff;fill-opacity:1;stroke:none;stroke-width:2;marker:none;visibility:visible;display:inline;overflow:visible;enable-background:accumulate"
         sodipodi:type="arc" />
      <path
         transform="matrix(0.66551225,0,0,0.66551225,4.3871507,1049.4486)"
         d="m 3.1377864,-3.8873782 c 0,1.2447962 -1.0091067,2.2539029 -2.25390292,2.2539029 -1.24479621,0 -2.25390288,-1.0091067 -2.25390288,-2.2539029 0,-1.2447962 1.00910667,-2.2539029 2.25390288,-2.2539029 1.24479622,0 2.25390292,1.0091067 2.25390292,2.2539029 z"
         sodipodi:ry="2.2539029"
         sodipodi:rx="2.2539029"
         sodipodi:cy="-3.8873782"
         sodipodi:cx="0.88388348"
         id="path3935-3"
         style="color:#000000;fill:#ffffff;fill-opacity:1;fill-rule:nonzero;stroke:none;stroke-width:2;marker:none;visibility:visible;display:inline;overflow:visible;enable-background:accumulate"
         sodipodi:type="arc" />
      <path
         transform="matrix(0.66551225,0,0,0.66551225,10.436378,1049.4486)"
         d="m 3.1377864,-3.8873782 c 0,1.2447962 -1.0091067,2.2539029 -2.25390292,2.2539029 -1.24479621,0 -2.25390288,-1.0091067 -2.25390288,-2.2539029 0,-1.2447962 1.00910667,-2.2539029 2.25390288,-2.2539029 1.24479622,0 2.25390292,1.0091067 2.25390292,2.2539029 z"
         sodipodi:ry="2.2539029"
         sodipodi:rx="2.2539029"
         sodipodi:cy="-3.8873782"
         sodipodi:cx="0.88388348"
         id="path3935-37"
         style="color:#000000;fill:#ffffff;fill-opacity:1;fill-rule:nonzero;stroke:none;stroke-width:2;marker:none;visibility:visible;display:inline;overflow:visible;enable-background:accumulate"
         sodipodi:type="arc" />
      <path
         transform="matrix(0.66551225,0,0,0.66551225,7.4117647,1046.4493)"
         d="m 3.1377864,-3.8873782 c 0,1.2447962 -1.0091067,2.2539029 -2.25390292,2.2539029 -1.24479621,0 -2.25390288,-1.0091067 -2.25390288,-2.2539029 0,-1.2447962 1.00910667,-2.2539029 2.25390288,-2.2539029 1.24479622,0 2.25390292,1.0091067 2.25390292,2.2539029 z"
         sodipodi:ry="2.2539029"
         sodipodi:rx="2.2539029"
         sodipodi:cy="-3.8873782"
         sodipodi:cx="0.88388348"
         id="path3935-4"
         style="color:#000000;fill:#ffffff;fill-opacity:1;fill-rule:nonzero;stroke:none;stroke-width:2;marker:none;visibility:visible;display:inline;overflow:visible;enable-background:accumulate"
         sodipodi:type="arc" />
    </g>
  </g>
</svg>
