<?xml version="1.0" encoding="UTF-8" standalone="no"?>
<!-- Created with Inkscape (http://www.inkscape.org/) -->

<svg
   xmlns:dc="http://purl.org/dc/elements/1.1/"
   xmlns:cc="http://creativecommons.org/ns#"
   xmlns:rdf="http://www.w3.org/1999/02/22-rdf-syntax-ns#"
   xmlns:svg="http://www.w3.org/2000/svg"
   xmlns="http://www.w3.org/2000/svg"
   xmlns:sodipodi="http://sodipodi.sourceforge.net/DTD/sodipodi-0.dtd"
   xmlns:inkscape="http://www.inkscape.org/namespaces/inkscape"
   width="16"
   height="16"
   id="svg2"
   version="1.1"
   inkscape:version="0.48.3.1 r9886"
   sodipodi:docname="pr_voted.svg"
   inkscape:export-filename="/home/ethric/git/oyster/themes/default/pr_voted.png"
   inkscape:export-xdpi="90"
   inkscape:export-ydpi="90">
  <defs
     id="defs4" />
  <sodipodi:namedview
     id="base"
     pagecolor="#ffffff"
     bordercolor="#666666"
     borderopacity="1.0"
     inkscape:pageopacity="0.0"
     inkscape:pageshadow="2"
     inkscape:zoom="17.832349"
     inkscape:cx="11.6078"
     inkscape:cy="5.9280732"
     inkscape:document-units="px"
     inkscape:current-layer="layer1"
     showgrid="true"
     inkscape:window-width="1920"
     inkscape:window-height="1016"
     inkscape:window-x="0"
     inkscape:window-y="0"
     inkscape:window-maximized="1">
    <inkscape:grid
       type="xygrid"
       id="grid2985"
       empspacing="5"
       visible="true"
       enabled="true"
       snapvisiblegridlinesonly="true" />
  </sodipodi:namedview>
  <metadata
     id="metadata7">
    <rdf:RDF>
      <cc:Work
         rdf:about="">
        <dc:format>image/svg+xml</dc:format>
        <dc:type
           rdf:resource="http://purl.org/dc/dcmitype/StillImage" />
        <dc:title />
      </cc:Work>
    </rdf:RDF>
  </metadata>
  <g
     inkscape:label="Ebene 1"
     inkscape:groupmode="layer"
     id="layer1"
     transform="translate(0,-1036.3622)">
    <path
       style="font-size:medium;font-style:normal;font-variant:normal;font-weight:normal;font-stretch:normal;text-indent:0;text-align:start;text-decoration:none;line-height:normal;letter-spacing:normal;word-spacing:normal;text-transform:none;direction:ltr;block-progression:tb;writing-mode:lr-tb;text-anchor:start;baseline-shift:baseline;color:#000000;fill:#08c0e0;fill-opacity:1;fill-rule:nonzero;stroke:none;stroke-width:2;marker:none;visibility:visible;display:inline;overflow:visible;enable-background:accumulate;font-family:Sans;-inkscape-font-specification:Sans"
       d="m 4.4389413,1036.3669 c -0.3033223,-0.021 -0.621158,0.03 -0.9369144,0.1249 -1.9466224,0.5841 -3.59653121,2.418 -3.4978139,4.7451 0.30138364,4.9217 3.98881,8.6339 7.4016241,10.9575 0.3288884,0.2237 0.7954088,0.2237 1.1242973,0 3.4273746,-2.3279 7.1259466,-6.0388 7.4640856,-10.9575 0.116081,-2.3257 -1.532559,-4.1518 -3.466584,-4.7451 -1.26146,-0.3872 -2.484017,0.272 -3.372892,1.1238 -0.4888714,0.4684 -0.7801914,1.1419 -1.1555278,1.7482 -0.3709472,-0.6057 -0.6700112,-1.2785 -1.1555278,-1.7482 -0.66208,-0.6406 -1.4947801,-1.1862 -2.4047471,-1.2487 z m -0.4372267,1.9979 0.9993754,0 0,1.998 1.9987508,0 0,0.9989 -1.9987508,0 0,1.998 -0.9993754,0 0,-1.998 -1.9987508,0 0,-0.9989 1.9987508,0 0,-1.998 z m 9.0256094,3.0282 0.999376,0 0,2.9969 -0.999376,0 0,1.998 -0.999375,0 0,0.9989 -2.9981269,0 0,1.998 -0.9993754,0 0,-0.999 -0.9993754,0 0,-0.999 -0.9993754,0 0,-0.9989 -0.9993754,0 0,-0.999 0.9993754,0 0,-0.999 0.9993754,0 0,-0.999 0.9993754,0 0,-0.9989 0.9993754,0 0,1.9979 2.9981269,0 0,-0.999 0.999375,0 0,-1.9979 z"
       id="path3771-2"
       inkscape:connector-curvature="0" />
  </g>
</svg>
