<?xml version="1.0" encoding="UTF-8" standalone="no"?>
<!-- Created with Inkscape (http://www.inkscape.org/) -->

<svg
   xmlns:dc="http://purl.org/dc/elements/1.1/"
   xmlns:cc="http://creativecommons.org/ns#"
   xmlns:rdf="http://www.w3.org/1999/02/22-rdf-syntax-ns#"
   xmlns:svg="http://www.w3.org/2000/svg"
   xmlns="http://www.w3.org/2000/svg"
   xmlns:sodipodi="http://sodipodi.sourceforge.net/DTD/sodipodi-0.dtd"
   xmlns:inkscape="http://www.inkscape.org/namespaces/inkscape"
   width="16"
   height="16"
   id="svg2"
   version="1.1"
   inkscape:version="0.48.3.1 r9886"
   sodipodi:docname="pr_voted.svg"
   inkscape:export-filename="/home/ethric/git/oyster/themes/default/pr_voted.png"
   inkscape:export-xdpi="90"
   inkscape:export-ydpi="90">
  <defs
     id="defs4" />
  <sodipodi:namedview
     id="base"
     pagecolor="#ffffff"
     bordercolor="#666666"
     borderopacity="1.0"
     inkscape:pageopacity="0.0"
     inkscape:pageshadow="2"
     inkscape:zoom="22.627417"
     inkscape:cx="11.980443"
     inkscape:cy="7.0309431"
     inkscape:document-units="px"
     inkscape:current-layer="layer1"
     showgrid="true"
     inkscape:window-width="1151"
     inkscape:window-height="852"
     inkscape:window-x="125"
     inkscape:window-y="93"
     inkscape:window-maximized="0">
    <inkscape:grid
       type="xygrid"
       id="grid2985"
       empspacing="5"
       visible="true"
       enabled="true"
       snapvisiblegridlinesonly="true" />
  </sodipodi:namedview>
  <metadata
     id="metadata7">
    <rdf:RDF>
      <cc:Work
         rdf:about="">
        <dc:format>image/svg+xml</dc:format>
        <dc:type
           rdf:resource="http://purl.org/dc/dcmitype/StillImage" />
        <dc:title></dc:title>
      </cc:Work>
    </rdf:RDF>
  </metadata>
  <g
     inkscape:label="Ebene 1"
     inkscape:groupmode="layer"
     id="layer1"
     transform="translate(0,-1036.3622)">
    <path
       style="font-size:medium;font-style:normal;font-variant:normal;font-weight:normal;font-stretch:normal;text-indent:0;text-align:start;text-decoration:none;line-height:normal;letter-spacing:normal;word-spacing:normal;text-transform:none;direction:ltr;block-progression:tb;writing-mode:lr-tb;text-anchor:start;baseline-shift:baseline;color:#000000;fill:#ffcc00;fill-opacity:1;fill-rule:nonzero;stroke:none;stroke-width:2;marker:none;visibility:visible;display:inline;overflow:visible;enable-background:accumulate;font-family:Sans;-inkscape-font-specification:Sans"
       d="M 4.4375 0 C 4.1339881 -0.020875 3.8159538 0.030125 3.5 0.125 C 1.552161 0.7098 -0.098779 2.5455 0 4.875 C 0.301572 9.8018 3.991303 13.51775 7.40625 15.84375 C 7.735344 16.06775 8.202156 16.06775 8.53125 15.84375 C 11.960766 13.51345 15.66165 9.7988 16 4.875 C 16.116154 2.5469 14.466483 0.719 12.53125 0.125 C 11.269001 -0.2625 10.04568 0.3973 9.15625 1.25 C 8.667073 1.7189 8.375571 2.3931 8 3 C 7.628821 2.3937 7.32957 1.7202 6.84375 1.25 C 6.1812562 0.608675 5.3480357 0.062625 4.4375 0 z M 4 2 L 5 2 L 5 4 L 7 4 L 7 5 L 5 5 L 5 7 L 4 7 L 4 5 L 2 5 L 2 4 L 4 4 L 4 2 z M 13.03125 5.03125 L 14.03125 5.03125 L 14.03125 8.03125 L 13.03125 8.03125 L 13.03125 10.03125 L 12.03125 10.03125 L 12.03125 11.03125 L 9.03125 11.03125 L 9.03125 13.03125 L 8.03125 13.03125 L 8.03125 12.03125 L 7.03125 12.03125 L 7.03125 11.03125 L 6.03125 11.03125 L 6.03125 10.03125 L 5.03125 10.03125 L 5.03125 9.03125 L 6.03125 9.03125 L 6.03125 8.03125 L 7.03125 8.03125 L 7.03125 7.03125 L 8.03125 7.03125 L 8.03125 6.03125 L 9.03125 6.03125 L 9.03125 8.03125 L 12.03125 8.03125 L 12.03125 7.03125 L 13.03125 7.03125 L 13.03125 5.03125 z "
       transform="translate(0,1036.3622)"
       id="path3771-2" />
  </g>
</svg>
