<?xml version="1.0" encoding="UTF-8" standalone="no"?>
<!-- Created with Inkscape (http://www.inkscape.org/) -->

<svg
   xmlns:dc="http://purl.org/dc/elements/1.1/"
   xmlns:cc="http://creativecommons.org/ns#"
   xmlns:rdf="http://www.w3.org/1999/02/22-rdf-syntax-ns#"
   xmlns:svg="http://www.w3.org/2000/svg"
   xmlns="http://www.w3.org/2000/svg"
   xmlns:sodipodi="http://sodipodi.sourceforge.net/DTD/sodipodi-0.dtd"
   xmlns:inkscape="http://www.inkscape.org/namespaces/inkscape"
   width="16"
   height="16"
   id="svg2"
   version="1.1"
   inkscape:version="0.48.3.1 r9886"
   sodipodi:docname="setvolume.svg"
   inkscape:export-filename="/home/ethric/git/oyster/themes/default/setvolume.png"
   inkscape:export-xdpi="90"
   inkscape:export-ydpi="90">
  <defs
     id="defs4" />
  <sodipodi:namedview
     id="base"
     pagecolor="#ffffff"
     bordercolor="#666666"
     borderopacity="1.0"
     inkscape:pageopacity="0.0"
     inkscape:pageshadow="2"
     inkscape:zoom="11.313708"
     inkscape:cx="6.4586152"
     inkscape:cy="2.8553907"
     inkscape:document-units="px"
     inkscape:current-layer="layer1"
     showgrid="false"
     inkscape:window-width="1920"
     inkscape:window-height="1016"
     inkscape:window-x="0"
     inkscape:window-y="0"
     inkscape:window-maximized="1"
     showguides="true"
     inkscape:guide-bbox="true">
    <inkscape:grid
       type="xygrid"
       id="grid2985"
       empspacing="5"
       visible="true"
       enabled="true"
       snapvisiblegridlinesonly="true" />
  </sodipodi:namedview>
  <metadata
     id="metadata7">
    <rdf:RDF>
      <cc:Work
         rdf:about="">
        <dc:format>image/svg+xml</dc:format>
        <dc:type
           rdf:resource="http://purl.org/dc/dcmitype/StillImage" />
        <dc:title></dc:title>
      </cc:Work>
    </rdf:RDF>
  </metadata>
  <g
     inkscape:label="Ebene 1"
     inkscape:groupmode="layer"
     id="layer1"
     transform="translate(0,-1036.3622)">
    <path
       style="color:#000000;fill:#ffcc00;fill-opacity:1;stroke:none;stroke-width:2;marker:none;visibility:visible;display:inline;overflow:visible;enable-background:accumulate"
       d="M 8 0 C 3.581722 0 0 3.581722 0 8 C 0 12.418278 3.581722 16 8 16 C 12.418278 16 16 12.418278 16 8 C 16 3.581722 12.418278 0 8 0 z M 11.5625 3.84375 C 11.725274 3.84375 11.850282 3.844 11.90625 3.875 C 11.9622 3.906 11.96873 3.9545 11.96875 4 C 11.96874 4.071 11.886607 4.229 11.71875 4.4375 C 9.7551555 6.7979 7.9287074 9.28135 6.25 11.90625 C 6.1329942 12.08945 5.9236735 12.1875 5.5625 12.1875 C 5.1962315 12.1875 4.9723778 12.156 4.90625 12.125 C 4.7332885 12.049 4.5152495 11.67075 4.28125 10.96875 C 4.0167229 10.19045 3.9062476 9.6984 3.90625 9.5 C 3.9062476 9.2864 4.0814066 9.0734 4.4375 8.875 C 4.6562384 8.7529 4.8321253 8.6875 5 8.6875 C 5.1983898 8.6875 5.367006 8.8619 5.46875 9.1875 C 5.6722263 9.7979 5.8197665 10.09375 5.90625 10.09375 C 5.972377 10.09375 6.0225274 10.0391 6.09375 9.9375 C 7.5231943 7.6484 8.8466974 5.82045 10.0625 4.40625 C 10.377886 4.04005 10.875744 3.84375 11.5625 3.84375 z "
       transform="translate(0,1036.3622)"
       id="path3935-3" />
    <g
       style="font-size:13.73966694px;font-style:normal;font-variant:normal;font-weight:bold;font-stretch:normal;text-align:center;line-height:125%;letter-spacing:0px;word-spacing:0px;writing-mode:lr-tb;text-anchor:middle;fill:#000000;fill-opacity:1;stroke:none;font-family:FreeSans;-inkscape-font-specification:FreeSans Bold"
       id="text3025" />
  </g>
</svg>
