<?xml version="1.0" encoding="UTF-8" standalone="no"?>
<!-- Created with Inkscape (http://www.inkscape.org/) -->

<svg
   xmlns:dc="http://purl.org/dc/elements/1.1/"
   xmlns:cc="http://creativecommons.org/ns#"
   xmlns:rdf="http://www.w3.org/1999/02/22-rdf-syntax-ns#"
   xmlns:svg="http://www.w3.org/2000/svg"
   xmlns="http://www.w3.org/2000/svg"
   xmlns:sodipodi="http://sodipodi.sourceforge.net/DTD/sodipodi-0.dtd"
   xmlns:inkscape="http://www.inkscape.org/namespaces/inkscape"
   width="16"
   height="16"
   id="svg2"
   version="1.1"
   inkscape:version="0.48.3.1 r9886"
   sodipodi:docname="volume.svg"
   inkscape:export-filename="/home/ethric/git/oyster/themes/default/volume.png"
   inkscape:export-xdpi="90"
   inkscape:export-ydpi="90">
  <defs
     id="defs4" />
  <sodipodi:namedview
     id="base"
     pagecolor="#ffffff"
     bordercolor="#666666"
     borderopacity="1.0"
     inkscape:pageopacity="0.0"
     inkscape:pageshadow="2"
     inkscape:zoom="22.627417"
     inkscape:cx="4.6130768"
     inkscape:cy="4.3399391"
     inkscape:document-units="px"
     inkscape:current-layer="layer1"
     showgrid="false"
     inkscape:window-width="1920"
     inkscape:window-height="1016"
     inkscape:window-x="0"
     inkscape:window-y="0"
     inkscape:window-maximized="1"
     showguides="true"
     inkscape:guide-bbox="true"
     inkscape:snap-nodes="false">
    <inkscape:grid
       type="xygrid"
       id="grid2985"
       empspacing="5"
       visible="true"
       enabled="true"
       snapvisiblegridlinesonly="true" />
  </sodipodi:namedview>
  <metadata
     id="metadata7">
    <rdf:RDF>
      <cc:Work
         rdf:about="">
        <dc:format>image/svg+xml</dc:format>
        <dc:type
           rdf:resource="http://purl.org/dc/dcmitype/StillImage" />
        <dc:title></dc:title>
      </cc:Work>
    </rdf:RDF>
  </metadata>
  <g
     inkscape:label="Ebene 1"
     inkscape:groupmode="layer"
     id="layer1"
     transform="translate(0,-1036.3622)">
    <path
       style="color:#000000;fill:#08c0e0;fill-opacity:1;stroke:none;stroke-width:2;marker:none;visibility:visible;display:inline;overflow:visible;enable-background:accumulate"
       d="M 8 0 C 3.581722 0 0 3.581722 0 8 C 0 12.418278 3.581722 16 8 16 C 12.418278 16 16 12.418278 16 8 C 16 3.581722 12.418278 0 8 0 z M 12.75 3.84375 L 12.96875 4.28125 C 14.121333 6.94885 13.996836 9.4406 12.96875 11.6875 L 12.75 12.15625 L 11.84375 11.71875 L 12.03125 11.28125 C 12.959476 9.25265 13.085877 7.1283 12.03125 4.6875 L 11.84375 4.21875 L 12.75 3.84375 z M 7 4 L 7 8 L 7 12 L 4 10 L 1 10 L 1 8 L 1 6 L 4 6 L 7 4 z M 10.84375 4.875 L 10.96875 5.34375 C 11.423012 6.99925 11.561922 8.7593 10.96875 10.625 L 10.8125 11.125 L 9.875 10.8125 L 10.03125 10.34375 C 10.557124 8.68965 10.451592 7.1569 10.03125 5.625 L 9.875 5.125 L 10.84375 4.875 z M 8.8125 5.84375 L 8.96875 6.34375 C 9.3335432 7.43855 9.3338582 8.56125 8.96875 9.65625 L 8.8125 10.125 L 7.875 9.8125 L 8.03125 9.34375 C 8.3330416 8.43855 8.3328902 7.56165 8.03125 6.65625 L 7.875 6.15625 L 8.8125 5.84375 z "
       transform="translate(0,1036.3622)"
       id="path3935-3" />
    <g
       style="font-size:13.73966694px;font-style:normal;font-variant:normal;font-weight:bold;font-stretch:normal;text-align:center;line-height:125%;letter-spacing:0px;word-spacing:0px;writing-mode:lr-tb;text-anchor:middle;fill:#000000;fill-opacity:1;stroke:none;font-family:FreeSans;-inkscape-font-specification:FreeSans Bold"
       id="text3025" />
  </g>
</svg>
